<svg width="40" height="40" viewBox="0 0 40 40" fill="none" xmlns="http://www.w3.org/2000/svg">
<path d="M34.2004 12.045C35.245 13.0897 36.0737 14.3299 36.6391 15.6948C37.2044 17.0597 37.4954 18.5226 37.4954 20C37.4954 21.4774 37.2044 22.9403 36.6391 24.3052C36.0737 25.6701 35.245 26.9103 34.2004 27.9549" stroke="#2EC86B" stroke-width="4" stroke-linecap="round" stroke-linejoin="round"/>
<path d="M12.5 26.25H5C4.66848 26.25 4.35054 26.1183 4.11612 25.8839C3.8817 25.6495 3.75 25.3315 3.75 25V15C3.75 14.6685 3.8817 14.3505 4.11612 14.1161C4.35054 13.8817 4.66848 13.75 5 13.75H12.5L23.75 5V35L12.5 26.25Z" stroke="#2EC86B" stroke-width="4" stroke-linecap="round" stroke-linejoin="round"/>
<path d="M12.5 13.75V26.25" stroke="#2EC86B" stroke-width="4" stroke-linecap="round" stroke-linejoin="round"/>
<path d="M29.7809 16.4645C30.2452 16.9288 30.6135 17.48 30.8648 18.0866C31.1161 18.6932 31.2454 19.3434 31.2454 20C31.2454 20.6566 31.1161 21.3068 30.8648 21.9134C30.6135 22.5201 30.2452 23.0713 29.7809 23.5355" stroke="#2EC86B" stroke-width="4" stroke-linecap="round" stroke-linejoin="round"/>
</svg>
