<svg width="31" height="32" viewBox="0 0 31 32" fill="none" xmlns="http://www.w3.org/2000/svg">
<path d="M21.3125 8H9.6875V14H21.3125V8Z" stroke="#2EC86B" stroke-width="2" stroke-linecap="round" stroke-linejoin="round"/>
<path d="M25.1875 27.001V5.00098C25.1875 4.44869 24.7538 4.00098 24.2188 4.00098L6.78125 4.00098C6.24622 4.00098 5.8125 4.44869 5.8125 5.00098V27.001C5.8125 27.5533 6.24622 28.001 6.78125 28.001H24.2188C24.7538 28.001 25.1875 27.5533 25.1875 27.001Z" stroke="#2EC86B" stroke-width="2" stroke-linecap="round" stroke-linejoin="round"/>
<path d="M10.6562 20C11.4588 20 12.1094 19.3284 12.1094 18.5C12.1094 17.6716 11.4588 17 10.6562 17C9.85371 17 9.20312 17.6716 9.20312 18.5C9.20312 19.3284 9.85371 20 10.6562 20Z" fill="#2EC86B"/>
<path d="M10.6562 25C11.4588 25 12.1094 24.3284 12.1094 23.5C12.1094 22.6716 11.4588 22 10.6562 22C9.85371 22 9.20312 22.6716 9.20312 23.5C9.20312 24.3284 9.85371 25 10.6562 25Z" fill="#2EC86B"/>
<path d="M15.5 20C16.3025 20 16.9531 19.3284 16.9531 18.5C16.9531 17.6716 16.3025 17 15.5 17C14.6975 17 14.0469 17.6716 14.0469 18.5C14.0469 19.3284 14.6975 20 15.5 20Z" fill="#2EC86B"/>
<path d="M15.5 25C16.3025 25 16.9531 24.3284 16.9531 23.5C16.9531 22.6716 16.3025 22 15.5 22C14.6975 22 14.0469 22.6716 14.0469 23.5C14.0469 24.3284 14.6975 25 15.5 25Z" fill="#2EC86B"/>
<path d="M20.3438 20C21.1463 20 21.7969 19.3284 21.7969 18.5C21.7969 17.6716 21.1463 17 20.3438 17C19.5412 17 18.8906 17.6716 18.8906 18.5C18.8906 19.3284 19.5412 20 20.3438 20Z" fill="#2EC86B"/>
<path d="M20.3438 25C21.1463 25 21.7969 24.3284 21.7969 23.5C21.7969 22.6716 21.1463 22 20.3438 22C19.5412 22 18.8906 22.6716 18.8906 23.5C18.8906 24.3284 19.5412 25 20.3438 25Z" fill="#2EC86B"/>
</svg>
