<svg width="31" height="30" viewBox="0 0 31 30" fill="none" xmlns="http://www.w3.org/2000/svg">
<path d="M1.92847 14.0625H28.9285" stroke="#344773" stroke-width="2" stroke-linecap="round" stroke-linejoin="round"/>
<path d="M26.9999 21.5625V24.375C26.9999 24.6236 26.8983 24.8621 26.7175 25.0379C26.5366 25.2137 26.2914 25.3125 26.0356 25.3125H23.1428C22.887 25.3125 22.6417 25.2137 22.4609 25.0379C22.2801 24.8621 22.1785 24.6236 22.1785 24.375V21.5625" stroke="#344773" stroke-width="2" stroke-linecap="round" stroke-linejoin="round"/>
<path d="M8.67861 21.5625V24.375C8.67861 24.6236 8.57701 24.8621 8.39617 25.0379C8.21533 25.2137 7.97007 25.3125 7.71432 25.3125H4.82146C4.56572 25.3125 4.32045 25.2137 4.13961 25.0379C3.95877 24.8621 3.85718 24.6236 3.85718 24.375V21.5625" stroke="#344773" stroke-width="2" stroke-linecap="round" stroke-linejoin="round"/>
<path d="M7.71436 17.8125H9.64293" stroke="#344773" stroke-width="2" stroke-linecap="round" stroke-linejoin="round"/>
<path d="M21.2144 17.8125H23.1429" stroke="#344773" stroke-width="2" stroke-linecap="round" stroke-linejoin="round"/>
<path d="M27 14.0625L23.3974 6.18174C23.3216 6.01603 23.1981 5.87523 23.0417 5.77641C22.8853 5.6776 22.7028 5.625 22.5162 5.625H8.34099C8.15446 5.625 7.97193 5.6776 7.81553 5.77641C7.65913 5.87523 7.53557 6.01603 7.45981 6.18174L3.85718 14.0625V21.5625H27V14.0625Z" stroke="#344773" stroke-width="2" stroke-linecap="round" stroke-linejoin="round"/>
</svg>
