<svg width="31" height="30" viewBox="0 0 31 30" fill="none" xmlns="http://www.w3.org/2000/svg">
<path d="M10.6072 18.75C14.0689 18.75 16.8751 16.0217 16.8751 12.6562C16.8751 9.29076 14.0689 6.5625 10.6072 6.5625C7.14557 6.5625 4.33936 9.29076 4.33936 12.6562C4.33936 16.0217 7.14557 18.75 10.6072 18.75Z" stroke="#344773" stroke-width="2" stroke-miterlimit="10"/>
<path d="M18.7327 6.78942C19.5948 6.55327 20.4989 6.49948 21.3842 6.63166C22.2695 6.76384 23.1153 7.07892 23.8648 7.55569C24.6143 8.03246 25.25 8.65984 25.7291 9.39558C26.2082 10.1313 26.5195 10.9583 26.6422 11.8209C26.7648 12.6835 26.6959 13.5616 26.4401 14.3961C26.1843 15.2306 25.7475 16.0021 25.1592 16.6587C24.5709 17.3153 23.8447 17.8417 23.0295 18.2024C22.2143 18.5631 21.329 18.7498 20.4334 18.7499" stroke="#344773" stroke-width="2" stroke-linecap="round" stroke-linejoin="round"/>
<path d="M1.92822 23.1324C2.90713 21.7787 4.2067 20.6738 5.7172 19.911C7.22771 19.1483 8.9048 18.7501 10.6069 18.75C12.309 18.7499 13.9861 19.148 15.4967 19.9107C17.0072 20.6733 18.3069 21.7781 19.2859 23.1318" stroke="#344773" stroke-width="2" stroke-linecap="round" stroke-linejoin="round"/>
<path d="M20.4333 18.75C22.1356 18.7488 23.8131 19.1464 25.3238 19.9091C26.8345 20.6719 28.1339 21.7773 29.112 23.1318" stroke="#344773" stroke-width="2" stroke-linecap="round" stroke-linejoin="round"/>
</svg>
