<svg width="84" height="84" viewBox="0 0 84 84" fill="none" xmlns="http://www.w3.org/2000/svg">
<path d="M42.3115 42L41.9631 75.7347" stroke="#2EC86B" stroke-width="4" stroke-linecap="round" stroke-linejoin="round"/>
<path d="M72.1506 57.531V26.4692C72.1506 26.0043 72.0272 25.5478 71.7929 25.1463C71.5587 24.7448 71.222 24.4127 70.8173 24.184L43.2548 8.60515C42.8607 8.38243 42.4158 8.26538 41.9631 8.26538C41.5105 8.26538 41.0655 8.38243 40.6715 8.60515L13.109 24.184C12.7043 24.4127 12.3676 24.7448 12.1333 25.1463C11.8991 25.5478 11.7756 26.0043 11.7756 26.4692V57.531C11.7756 57.9959 11.8991 58.4524 12.1333 58.8539C12.3676 59.2554 12.7043 59.5875 13.109 59.8162L40.6715 75.395C41.0655 75.6178 41.5105 75.7348 41.9631 75.7348C42.4158 75.7348 42.8607 75.6178 43.2548 75.395L70.8173 59.8162C71.222 59.5875 71.5587 59.2554 71.7929 58.8539C72.0272 58.4524 72.1506 57.9959 72.1506 57.531V57.531Z" stroke="#2EC86B" stroke-width="4" stroke-linecap="round" stroke-linejoin="round"/>
<path d="M71.7915 25.1433L42.3117 42L12.1377 25.1396" stroke="#2EC86B" stroke-width="4" stroke-linecap="round" stroke-linejoin="round"/>
<path d="M58.0857 48.7304V32.9804L27.6426 15.9697" stroke="#2EC86B" stroke-width="4" stroke-linecap="round" stroke-linejoin="round"/>
</svg>
