<svg width="50" height="50" viewBox="0 0 50 50" fill="none" xmlns="http://www.w3.org/2000/svg">
<path d="M25 20.3125V10.1562C25 9.12025 25.4116 8.12668 26.1441 7.39411C26.8767 6.66155 27.8702 6.25 28.9062 6.25C29.9423 6.25 30.9358 6.66155 31.6684 7.39411C32.4009 8.12668 32.8125 9.12025 32.8125 10.1562V25.7812" stroke="#2EC86B" stroke-width="3" stroke-linecap="round" stroke-linejoin="round"/>
<path d="M17.1875 21.875V7.03125C17.1875 5.99525 17.5991 5.00168 18.3316 4.26911C19.0642 3.53655 20.0577 3.125 21.0938 3.125C22.1298 3.125 23.1233 3.53655 23.8559 4.26911C24.5884 5.00168 25 5.99525 25 7.03125V20.3125" stroke="#2EC86B" stroke-width="3" stroke-linecap="round" stroke-linejoin="round"/>
<path d="M25 33.5938C25 31.5217 25.8231 29.5346 27.2882 28.0695C28.7534 26.6044 30.7405 25.7812 32.8125 25.7812V21.875C32.8125 20.839 33.2241 19.8454 33.9566 19.1129C34.6892 18.3803 35.6827 17.9687 36.7188 17.9688C37.7548 17.9687 38.7483 18.3803 39.4809 19.1129C40.2134 19.8454 40.625 20.839 40.625 21.875V29.6875C40.625 33.8315 38.9788 37.8058 36.0485 40.736C33.1183 43.6663 29.144 45.3125 25 45.3125C20.856 45.3125 16.8817 43.6663 13.9515 40.736C11.0212 37.8058 9.375 33.8315 9.375 29.6875V14.8438C9.375 13.8077 9.78655 12.8142 10.5191 12.0816C11.2517 11.3491 12.2452 10.9375 13.2812 10.9375C14.3173 10.9375 15.3108 11.3491 16.0434 12.0816C16.7759 12.8142 17.1875 13.8077 17.1875 14.8438V21.875" stroke="#2EC86B" stroke-width="3" stroke-linecap="round" stroke-linejoin="round"/>
</svg>
