<svg width="30" height="30" viewBox="0 0 30 30" fill="none" xmlns="http://www.w3.org/2000/svg">
<path d="M10.9182 14.3945C10.1955 12.5919 10.1174 10.595 10.697 8.74143C11.2766 6.88786 12.4785 5.29127 14.0994 4.22153C15.7203 3.15179 17.6609 2.67452 19.593 2.87039C21.5252 3.06626 23.3305 3.92326 24.7038 5.29652C26.077 6.66978 26.934 8.47508 27.1299 10.4073C27.3258 12.3395 26.8485 14.28 25.7787 15.9009C24.709 17.5218 23.1124 18.7237 21.2588 19.3033C19.4053 19.8829 17.4084 19.8048 15.6058 19.0821L15.6059 19.0819L14.0628 20.625H11.2503V23.4375H8.43777V26.25H3.75027V21.5625L10.9184 14.3944L10.9182 14.3945Z" stroke="#2EC86B" stroke-width="2" stroke-linecap="round" stroke-linejoin="round"/>
<path d="M21.0938 10.3125C21.8704 10.3125 22.5 9.6829 22.5 8.90625C22.5 8.1296 21.8704 7.5 21.0938 7.5C20.3171 7.5 19.6875 8.1296 19.6875 8.90625C19.6875 9.6829 20.3171 10.3125 21.0938 10.3125Z" fill="#2EC86B"/>
</svg>
