<svg width="128" height="58" viewBox="0 0 128 58" fill="none" xmlns="http://www.w3.org/2000/svg">
<path d="M127.808 16.2652C125.647 16.2652 123.716 16.6904 122.015 17.5409C120.314 18.3559 119.091 19.543 118.347 21.1021V37.9516H111.225V10.0995H117.762V16.0526C118.755 14.1391 120.013 12.6331 121.536 11.5346C123.06 10.4361 124.672 9.83372 126.373 9.72742C126.763 9.72742 127.064 9.72742 127.277 9.72742C127.489 9.72742 127.667 9.74514 127.808 9.78057V16.2652Z" fill="#0E1536"/>
<path d="M78.7898 29.7127C78.7898 27.9055 79.2859 26.3287 80.2781 24.9821C81.3057 23.6001 82.7231 22.5371 84.5303 21.793C86.3375 21.0488 88.4105 20.6767 90.7492 20.6767C91.9185 20.6767 93.1056 20.7653 94.3104 20.9425C95.5152 21.1197 96.5606 21.4032 97.4464 21.793V20.3047C97.4464 18.5329 96.9149 17.1687 95.8519 16.2119C94.8242 15.2552 93.2828 14.7768 91.2276 14.7768C89.7038 14.7768 88.251 15.0425 86.869 15.5741C85.4871 16.1056 84.0342 16.8852 82.5105 17.9128L80.2249 13.2353C82.0676 12.0306 83.9456 11.127 85.8591 10.5246C87.8081 9.92216 89.8456 9.62096 91.9717 9.62096C95.9404 9.62096 99.0233 10.6131 101.22 12.5975C103.453 14.5819 104.569 17.4167 104.569 21.102V29.9785C104.569 30.7226 104.693 31.2542 104.941 31.5731C105.224 31.892 105.667 32.0869 106.27 32.1578V37.9514C105.632 38.0577 105.047 38.1463 104.516 38.2172C104.02 38.288 103.594 38.3235 103.24 38.3235C101.823 38.3235 100.742 38.0046 99.9978 37.3667C99.2891 36.7289 98.8461 35.9493 98.6689 35.028L98.5095 33.5929C97.3047 35.152 95.7987 36.3568 93.9915 37.2073C92.1843 38.0577 90.3417 38.4829 88.4636 38.4829C86.621 38.4829 84.9555 38.1109 83.4672 37.3667C82.0144 36.5872 80.8628 35.5418 80.0123 34.2307C79.1973 32.8842 78.7898 31.3782 78.7898 29.7127ZM96.1176 31.1479C96.5074 30.7226 96.8263 30.2974 97.0744 29.8722C97.3224 29.447 97.4464 29.0572 97.4464 28.7028V25.8857C96.596 25.5314 95.6747 25.2656 94.6825 25.0884C93.6903 24.8758 92.7513 24.7695 91.8654 24.7695C90.0228 24.7695 88.499 25.177 87.2942 25.992C86.1249 26.7716 85.5402 27.8169 85.5402 29.128C85.5402 29.8367 85.7351 30.51 86.1249 31.1479C86.5147 31.7857 87.0816 32.2995 87.8258 32.6893C88.5699 33.0791 89.4558 33.274 90.4834 33.274C91.5465 33.274 92.5918 33.0791 93.6194 32.6893C94.6471 32.2641 95.4798 31.7502 96.1176 31.1479Z" fill="#0E1536"/>
<path d="M42.6699 18.8161C42.6699 16.5128 43.0774 14.2627 43.8924 12.0657C44.7429 9.83327 45.9654 7.81347 47.56 6.00627C49.1546 4.16364 51.1035 2.71079 53.4068 1.64774C55.7101 0.549246 58.3323 0 61.2734 0C64.7461 0 67.7403 0.761857 70.2562 2.28557C72.8076 3.80929 74.7034 5.79366 75.9436 8.23869L70.3094 12.1188C69.6716 10.7014 68.8388 9.58523 67.8112 8.77022C66.7836 7.91977 65.6851 7.33509 64.5157 7.01617C63.3464 6.66182 62.1947 6.48464 61.0608 6.48464C59.2182 6.48464 57.6059 6.85671 56.2239 7.60085C54.8774 8.34499 53.7434 9.31946 52.8221 10.5243C51.9008 11.7291 51.2098 13.0756 50.7492 14.5639C50.3239 16.0522 50.1113 17.5404 50.1113 19.0287C50.1113 20.6942 50.3771 22.3065 50.9086 23.8656C51.4401 25.3893 52.1843 26.7536 53.141 27.9584C54.1332 29.1277 55.3026 30.0668 56.6491 30.7755C58.0311 31.4488 59.5371 31.7854 61.1671 31.7854C62.3365 31.7854 63.5235 31.5905 64.7283 31.2007C65.9331 30.8109 67.0494 30.1908 68.077 29.3404C69.1046 28.4899 69.9019 27.3914 70.4689 26.0449L76.4751 29.4998C75.731 31.3779 74.5085 32.9725 72.8076 34.2836C71.1421 35.5947 69.2641 36.5869 67.1734 37.2601C65.0827 37.9334 63.0097 38.27 60.9545 38.27C58.2614 38.27 55.7987 37.7208 53.5663 36.6223C51.3338 35.4884 49.4026 34.0001 47.7726 32.1575C46.178 30.2794 44.9201 28.1887 43.9987 25.8854C43.1129 23.5467 42.6699 21.1903 42.6699 18.8161Z" fill="#0E1536"/>
<path d="M119.066 57.3779V47.8615H121.504V54.1209L125.78 47.8433H128V57.3779H125.562V51.2641L121.34 57.3779H119.066Z" fill="#0E1536"/>
<path d="M107.907 57.3779V47.8615H110.345V54.1209L114.621 47.8433H116.841V57.3779H114.403V51.2641L110.181 57.3779H107.907Z" fill="#0E1536"/>
<path d="M102.076 57.56C101.3 57.56 100.603 57.4326 99.9839 57.1778C99.3652 56.911 98.8375 56.5471 98.4008 56.0861C97.9641 55.613 97.6245 55.0793 97.3819 54.4849C97.1514 53.8905 97.0361 53.2658 97.0361 52.6107C97.0361 51.713 97.2363 50.8942 97.6366 50.1543C98.049 49.4022 98.6313 48.8017 99.3834 48.3529C100.135 47.9041 101.027 47.6796 102.058 47.6796C103.089 47.6796 103.975 47.9041 104.715 48.3529C105.455 48.8017 106.007 49.39 106.371 50.1179L103.987 50.8457C103.781 50.4939 103.508 50.2271 103.168 50.0451C102.828 49.851 102.452 49.754 102.04 49.754C101.579 49.754 101.154 49.8753 100.766 50.1179C100.39 50.3484 100.093 50.6819 99.8747 51.1186C99.6563 51.5432 99.5472 52.0406 99.5472 52.6107C99.5472 53.1687 99.6563 53.6661 99.8747 54.1028C100.105 54.5273 100.408 54.867 100.784 55.1217C101.161 55.3643 101.579 55.4856 102.04 55.4856C102.331 55.4856 102.604 55.4371 102.859 55.3401C103.126 55.243 103.362 55.1096 103.568 54.9398C103.775 54.7699 103.926 54.5758 104.023 54.3575L106.407 55.0853C106.189 55.5584 105.867 55.983 105.443 56.359C105.03 56.7351 104.539 57.0323 103.969 57.2506C103.411 57.4568 102.78 57.56 102.076 57.56Z" fill="#0E1536"/>
<path d="M91.0043 57.56C90.228 57.56 89.5305 57.4326 88.9118 57.1778C88.2932 56.911 87.7655 56.5471 87.3288 56.0861C86.9042 55.6251 86.5767 55.0975 86.3462 54.5031C86.1157 53.9087 86.0005 53.2839 86.0005 52.6289C86.0005 51.9617 86.1157 51.3309 86.3462 50.7365C86.5767 50.1421 86.9042 49.6145 87.3288 49.1535C87.7655 48.6925 88.2932 48.3347 88.9118 48.0799C89.5305 47.8131 90.228 47.6796 91.0043 47.6796C91.7807 47.6796 92.4721 47.8131 93.0786 48.0799C93.6973 48.3347 94.225 48.6925 94.6617 49.1535C95.0984 49.6145 95.4259 50.1421 95.6443 50.7365C95.8747 51.3309 95.99 51.9617 95.99 52.6289C95.99 53.2839 95.8747 53.9087 95.6443 54.5031C95.4259 55.0975 95.0984 55.6251 94.6617 56.0861C94.2371 56.5471 93.7155 56.911 93.0969 57.1778C92.4782 57.4326 91.7807 57.56 91.0043 57.56ZM88.5115 52.6289C88.5115 53.1869 88.6207 53.6843 88.839 54.121C89.0574 54.5455 89.3546 54.8791 89.7306 55.1217C90.1067 55.3643 90.5312 55.4856 91.0043 55.4856C91.4653 55.4856 91.8838 55.3643 92.2598 55.1217C92.6359 54.867 92.9331 54.5273 93.1514 54.1028C93.3819 53.6661 93.4972 53.1687 93.4972 52.6107C93.4972 52.0648 93.3819 51.5735 93.1514 51.1368C92.9331 50.7001 92.6359 50.3605 92.2598 50.1179C91.8838 49.8753 91.4653 49.754 91.0043 49.754C90.5312 49.754 90.1067 49.8813 89.7306 50.1361C89.3546 50.3787 89.0574 50.7183 88.839 51.155C88.6207 51.5796 88.5115 52.0709 88.5115 52.6289Z" fill="#0E1536"/>
<path d="M75.501 57.3783V44.4593H80.9779C81.5723 44.4593 82.1182 44.5806 82.6155 44.8232C83.1129 45.0658 83.5435 45.3934 83.9074 45.8058C84.2835 46.2182 84.5746 46.6792 84.7808 47.1887C84.987 47.6982 85.0902 48.2198 85.0902 48.7535C85.0902 49.4813 84.9203 50.1728 84.5807 50.8278C84.241 51.4829 83.774 52.0166 83.1796 52.4291C82.5852 52.8415 81.8816 53.0477 81.0689 53.0477H78.012V57.3783H75.501ZM78.012 50.846H80.9233C81.2266 50.846 81.4995 50.7611 81.7421 50.5913C81.9847 50.4215 82.1788 50.1788 82.3244 49.8635C82.47 49.5359 82.5428 49.166 82.5428 48.7535C82.5428 48.3047 82.4578 47.9226 82.288 47.6072C82.1303 47.2918 81.918 47.0552 81.6512 46.8975C81.3964 46.7398 81.1174 46.661 80.8141 46.661H78.012V50.846Z" fill="#0E1536"/>
<path d="M59.7341 57.378V47.8616H62.1724V54.121L66.4484 47.8434H68.6683V57.378H66.23V51.2642L62.0086 57.378H59.7341ZM64.2103 46.9518C63.2762 46.9518 62.5423 46.7153 62.0086 46.2422C61.4749 45.757 61.208 45.1383 61.208 44.3862H62.7182C62.7182 44.7501 62.8395 45.0534 63.0822 45.296C63.3248 45.5386 63.7008 45.6599 64.2103 45.6599C64.7198 45.6599 65.0837 45.5447 65.302 45.3142C65.5325 45.0837 65.672 44.7744 65.7205 44.3862H67.2308C67.2308 45.1383 66.9639 45.757 66.4302 46.2422C65.8964 46.7153 65.1565 46.9518 64.2103 46.9518Z" fill="#0E1536"/>
<path d="M53.263 57.56C52.4988 57.56 51.8073 57.4326 51.1887 57.1778C50.57 56.911 50.0423 56.5531 49.6056 56.1043C49.169 55.6433 48.8293 55.1217 48.5867 54.5395C48.3562 53.9451 48.241 53.3203 48.241 52.6653C48.241 51.7555 48.4411 50.9246 48.8414 50.1725C49.2539 49.4204 49.8361 48.8199 50.5882 48.3711C51.3524 47.9101 52.2501 47.6796 53.2812 47.6796C54.3244 47.6796 55.216 47.9101 55.956 48.3711C56.6959 48.8199 57.26 49.4204 57.6482 50.1725C58.0485 50.9124 58.2486 51.713 58.2486 52.5743C58.2486 52.7199 58.2426 52.8715 58.2305 53.0292C58.2183 53.1748 58.2062 53.2961 58.1941 53.3931H50.8248C50.8733 53.8783 51.0128 54.3029 51.2433 54.6668C51.4859 55.0307 51.7891 55.3097 52.1531 55.5038C52.5291 55.6858 52.9294 55.7768 53.354 55.7768C53.8392 55.7768 54.2941 55.6615 54.7187 55.431C55.1554 55.1884 55.4526 54.873 55.6103 54.4849L57.7028 55.0671C57.4723 55.5524 57.1387 55.983 56.702 56.359C56.2774 56.7351 55.774 57.0323 55.1918 57.2506C54.6095 57.4568 53.9666 57.56 53.263 57.56ZM50.7702 51.8465H55.7558C55.7073 51.3613 55.5678 50.9428 55.3373 50.591C55.119 50.2271 54.8278 49.9481 54.4639 49.754C54.1 49.5477 53.6936 49.4446 53.2448 49.4446C52.8081 49.4446 52.4078 49.5477 52.0439 49.754C51.6921 49.9481 51.401 50.2271 51.1705 50.591C50.9521 50.9428 50.8187 51.3613 50.7702 51.8465Z" fill="#0E1536"/>
<path d="M43.0996 57.56C42.3232 57.56 41.6257 57.4326 41.007 57.1778C40.3884 56.911 39.8607 56.5471 39.424 56.0861C38.9873 55.613 38.6477 55.0793 38.405 54.4849C38.1746 53.8905 38.0593 53.2658 38.0593 52.6107C38.0593 51.713 38.2595 50.8942 38.6598 50.1543C39.0722 49.4022 39.6545 48.8017 40.4066 48.3529C41.1587 47.9041 42.0503 47.6796 43.0814 47.6796C44.1125 47.6796 44.998 47.9041 45.7379 48.3529C46.4779 48.8017 47.0299 49.39 47.3938 50.1179L45.0101 50.8457C44.8039 50.4939 44.531 50.2271 44.1913 50.0451C43.8517 49.851 43.4756 49.754 43.0632 49.754C42.6022 49.754 42.1776 49.8753 41.7895 50.1179C41.4134 50.3484 41.1162 50.6819 40.8979 51.1186C40.6795 51.5432 40.5703 52.0406 40.5703 52.6107C40.5703 53.1687 40.6795 53.6661 40.8979 54.1028C41.1283 54.5273 41.4316 54.867 41.8077 55.1217C42.1837 55.3643 42.6022 55.4856 43.0632 55.4856C43.3543 55.4856 43.6272 55.4371 43.882 55.3401C44.1489 55.243 44.3854 55.1096 44.5916 54.9398C44.7978 54.7699 44.9495 54.5758 45.0465 54.3575L47.4302 55.0853C47.2118 55.5584 46.8904 55.983 46.4658 56.359C46.0533 56.7351 45.5621 57.0323 44.9919 57.2506C44.4339 57.4568 43.8031 57.56 43.0996 57.56Z" fill="#0E1536"/>
<path d="M28.3533 57.3779V47.8433H33.6664C34.3215 47.8433 34.8492 47.9525 35.2495 48.1708C35.6619 48.3892 35.9652 48.6742 36.1593 49.026C36.3534 49.3778 36.4504 49.7539 36.4504 50.1542C36.4504 50.6879 36.3291 51.1549 36.0865 51.5553C35.856 51.9556 35.4921 52.2649 34.9947 52.4832C35.5527 52.6409 36.0076 52.9139 36.3594 53.302C36.7112 53.6781 36.8871 54.1754 36.8871 54.7941C36.8871 55.3885 36.7476 55.8798 36.4686 56.268C36.1896 56.644 35.7893 56.923 35.2677 57.105C34.7461 57.2869 34.1274 57.3779 33.4117 57.3779H28.3533ZM30.6641 55.7221H33.3389C33.5573 55.7221 33.7574 55.6675 33.9394 55.5583C34.1213 55.4491 34.2608 55.3036 34.3579 55.1216C34.4671 54.9397 34.5216 54.7395 34.5216 54.5212C34.5216 54.2907 34.4731 54.0905 34.3761 53.9207C34.279 53.7387 34.1395 53.5992 33.9576 53.5022C33.7878 53.393 33.5876 53.3384 33.3571 53.3384H30.6641V55.7221ZM30.6641 51.81H33.0478C33.2661 51.81 33.4602 51.7554 33.6301 51.6462C33.7999 51.5371 33.9272 51.3915 34.0122 51.2095C34.1092 51.0276 34.1577 50.8274 34.1577 50.6091C34.1577 50.2937 34.0546 50.0329 33.8484 49.8266C33.6543 49.6083 33.3935 49.4991 33.066 49.4991H30.6641V51.81Z" fill="#0E1536"/>
<path d="M17.3508 57.56C16.5744 57.56 15.8769 57.4326 15.2583 57.1778C14.6396 56.911 14.1119 56.5471 13.6752 56.0861C13.2506 55.6251 12.9231 55.0975 12.6926 54.5031C12.4622 53.9087 12.3469 53.2839 12.3469 52.6289C12.3469 51.9617 12.4622 51.3309 12.6926 50.7365C12.9231 50.1421 13.2506 49.6145 13.6752 49.1535C14.1119 48.6925 14.6396 48.3347 15.2583 48.0799C15.8769 47.8131 16.5744 47.6796 17.3508 47.6796C18.1271 47.6796 18.8186 47.8131 19.4251 48.0799C20.0437 48.3347 20.5714 48.6925 21.0081 49.1535C21.4448 49.6145 21.7723 50.1421 21.9907 50.7365C22.2212 51.3309 22.3364 51.9617 22.3364 52.6289C22.3364 53.2839 22.2212 53.9087 21.9907 54.5031C21.7723 55.0975 21.4448 55.6251 21.0081 56.0861C20.5836 56.5471 20.0619 56.911 19.4433 57.1778C18.8246 57.4326 18.1271 57.56 17.3508 57.56ZM14.8579 52.6289C14.8579 53.1869 14.9671 53.6843 15.1855 54.121C15.4038 54.5455 15.701 54.8791 16.0771 55.1217C16.4531 55.3643 16.8777 55.4856 17.3508 55.4856C17.8117 55.4856 18.2302 55.3643 18.6063 55.1217C18.9823 54.867 19.2795 54.5273 19.4979 54.1028C19.7284 53.6661 19.8436 53.1687 19.8436 52.6107C19.8436 52.0648 19.7284 51.5735 19.4979 51.1368C19.2795 50.7001 18.9823 50.3605 18.6063 50.1179C18.2302 49.8753 17.8117 49.754 17.3508 49.754C16.8777 49.754 16.4531 49.8813 16.0771 50.1361C15.701 50.3787 15.4038 50.7183 15.1855 51.155C14.9671 51.5796 14.8579 52.0709 14.8579 52.6289Z" fill="#0E1536"/>
<path d="M0 57.3783V44.4593H10.4626V57.3783H7.96976V46.661H2.49282V57.3783H0Z" fill="#0E1536"/>
<path d="M0 4.99999C0 2.23857 2.23858 0 5 0H13.746C27.5532 0 38.746 11.1929 38.746 25V33.7461C38.746 36.5075 36.5075 38.746 33.746 38.746H25C11.1929 38.746 0 27.5532 0 13.746V4.99999Z" fill="#2EC86B"/>
<path d="M19.4133 29.9182C17.7279 29.9182 16.203 29.6463 14.8387 29.1026C13.4743 28.5329 12.3106 27.7691 11.3475 26.8111C10.3844 25.8272 9.63537 24.7138 9.10033 23.4709C8.59204 22.2022 8.33789 20.8687 8.33789 19.4705C8.33789 17.5285 8.7793 15.7549 9.66212 14.1495C10.5717 12.5442 11.8558 11.2625 13.5144 10.3045C15.1998 9.32054 17.1795 8.82858 19.4534 8.82858C21.7541 8.82858 23.7204 9.32054 25.3523 10.3045C26.9841 11.2625 28.2281 12.5442 29.0842 14.1495C29.967 15.729 30.4084 17.4379 30.4084 19.2763C30.4084 19.587 30.3951 19.9107 30.3683 20.2473C30.3415 20.558 30.3148 20.8169 30.288 21.0241H14.0361C14.1431 22.0598 14.4508 22.966 14.9591 23.7428C15.4941 24.5196 16.1629 25.1151 16.9655 25.5294C17.7948 25.9178 18.6776 26.112 19.6139 26.112C20.684 26.112 21.6872 25.866 22.6235 25.374C23.5866 24.8562 24.2421 24.183 24.5898 23.3544L29.2046 24.5972C28.6963 25.633 27.9606 26.5521 26.9975 27.3548C26.0612 28.1575 24.951 28.7919 23.6669 29.2579C22.3828 29.6981 20.9649 29.9182 19.4133 29.9182ZM13.9157 17.7227H24.9109C24.8038 16.687 24.4962 15.7937 23.9879 15.0428C23.5064 14.2661 22.8643 13.6705 22.0617 13.2562C21.2592 12.8161 20.363 12.596 19.3732 12.596C18.4101 12.596 17.5273 12.8161 16.7247 13.2562C15.9489 13.6705 15.3068 14.2661 14.7985 15.0428C14.317 15.7937 14.0227 16.687 13.9157 17.7227Z" fill="white"/>
</svg>
