<svg width="60" height="48" viewBox="0 0 60 48" fill="none" xmlns="http://www.w3.org/2000/svg">
<path d="M54.375 12.2605H5.625C4.58947 12.2605 3.75 12.9179 3.75 13.7289V34.2866C3.75 35.0976 4.58947 35.755 5.625 35.755H54.375C55.4105 35.755 56.25 35.0976 56.25 34.2866V13.7289C56.25 12.9179 55.4105 12.2605 54.375 12.2605Z" stroke="#2EC86B" stroke-width="4" stroke-linecap="round" stroke-linejoin="round"/>
<path d="M30 29.8813C34.1421 29.8813 37.5 27.2516 37.5 24.0077C37.5 20.7637 34.1421 18.134 30 18.134C25.8579 18.134 22.5 20.7637 22.5 24.0077C22.5 27.2516 25.8579 29.8813 30 29.8813Z" stroke="#2EC86B" stroke-width="4" stroke-linecap="round" stroke-linejoin="round"/>
<path d="M41.25 12.2605L56.25 22.5394" stroke="#2EC86B" stroke-width="4" stroke-linecap="round" stroke-linejoin="round"/>
<path d="M41.25 35.7549L56.25 25.4761" stroke="#2EC86B" stroke-width="4" stroke-linecap="round" stroke-linejoin="round"/>
<path d="M18.75 12.2605L3.75 22.5394" stroke="#2EC86B" stroke-width="4" stroke-linecap="round" stroke-linejoin="round"/>
<path d="M18.75 35.7549L3.75 25.4761" stroke="#2EC86B" stroke-width="4" stroke-linecap="round" stroke-linejoin="round"/>
</svg>
