<svg width="372" height="91" viewBox="0 0 372 91" fill="none" xmlns="http://www.w3.org/2000/svg">
<path fill-rule="evenodd" clip-rule="evenodd" d="M36 1C16.67 1 1 16.67 1 36C1 55.33 16.67 71 36 71H336C336.591 71 337.179 70.9853 337.764 70.9563C348.797 77.2617 358.581 84.7926 359.439 88.0661C359.481 88.7181 359.495 89.0841 359.499 89.084C359.502 89.0839 359.5 88.8988 359.5 88.5C359.5 88.3652 359.48 88.2204 359.439 88.0661C359.225 84.6813 358.272 73.5879 354.071 65.9798C364.217 59.851 371 48.7176 371 36C371 16.67 355.33 1 336 1H36Z" fill="white"/>
<path d="M337.764 70.9563L338.26 70.0881L338.006 69.9431L337.714 69.9576L337.764 70.9563ZM359.499 89.084L359.475 88.0843L359.473 88.0843L359.499 89.084ZM354.071 65.9798L353.554 65.1238L352.731 65.6211L353.196 66.4631L354.071 65.9798ZM2 36C2 17.2223 17.2223 2 36 2V0C16.1178 0 0 16.1177 0 36H2ZM36 70C17.2223 70 2 54.7777 2 36H0C0 55.8823 16.1178 72 36 72V70ZM336 70H36V72H336V70ZM337.714 69.9576C337.146 69.9857 336.575 70 336 70V72C336.608 72 337.212 71.9849 337.813 71.9551L337.714 69.9576ZM337.267 71.8246C342.75 74.958 347.913 78.3906 351.8 81.4354C353.746 82.9591 355.354 84.3718 356.519 85.5897C357.725 86.8501 358.329 87.7728 358.472 88.3197L360.407 87.8124C360.121 86.7226 359.179 85.4764 357.964 84.207C356.709 82.8952 355.021 81.4173 353.034 79.8609C349.056 76.7456 343.81 73.2601 338.26 70.0881L337.267 71.8246ZM358.441 88.1293C358.462 88.4505 358.475 88.7012 358.484 88.8726C358.489 88.9567 358.492 89.0268 358.495 89.0744C358.497 89.097 358.498 89.1228 358.5 89.1452C358.501 89.1538 358.502 89.1771 358.506 89.204C358.507 89.2125 358.512 89.2515 358.522 89.2995C358.526 89.3159 358.541 89.3857 358.576 89.4693C358.591 89.5057 358.635 89.6075 358.724 89.7165C358.797 89.8048 359.062 90.0956 359.525 90.0837L359.473 88.0843C359.936 88.0724 360.201 88.3631 360.273 88.4514C360.362 88.5602 360.406 88.6619 360.421 88.6982C360.456 88.7815 360.471 88.8507 360.475 88.8663C360.485 88.913 360.49 88.9498 360.49 88.9555C360.492 88.9681 360.493 88.9776 360.493 88.9811C360.493 88.9855 360.494 88.9883 360.494 88.9889C360.494 88.9899 360.494 88.9881 360.493 88.9821C360.493 88.9765 360.492 88.9689 360.492 88.959C360.49 88.9176 360.486 88.8555 360.482 88.7666C360.472 88.5921 360.458 88.3337 360.437 88.0029L358.441 88.1293ZM359.523 90.0837C359.852 90.0757 360.079 89.914 360.194 89.8027C360.304 89.6963 360.364 89.5896 360.39 89.5387C360.443 89.4347 360.465 89.3455 360.471 89.3207C360.487 89.2555 360.492 89.2027 360.493 89.1914C360.497 89.1558 360.499 89.1266 360.499 89.1189C360.5 89.0964 360.5 89.0744 360.5 89.061C360.501 89.0304 360.501 88.9889 360.501 88.9413C360.501 88.8315 360.5 88.7096 360.5 88.5H358.5C358.5 88.6893 358.501 88.8593 358.501 88.9417C358.501 88.9903 358.501 89.02 358.501 89.0366C358.5 89.0468 358.5 89.0424 358.501 89.0315C358.501 89.0298 358.502 89.005 358.506 88.9723C358.507 88.9624 358.512 88.9107 358.528 88.8462C358.534 88.8218 358.556 88.7328 358.609 88.6291C358.634 88.5782 358.694 88.4716 358.804 88.3652C358.919 88.2539 359.146 88.0923 359.475 88.0843L359.523 90.0837ZM360.5 88.5C360.5 88.2642 360.465 88.0331 360.407 87.8124L358.472 88.3198C358.495 88.4076 358.5 88.4662 358.5 88.5H360.5ZM360.437 88.0028C360.224 84.6286 359.268 73.3237 354.947 65.4964L353.196 66.4631C357.275 73.8521 358.226 84.7339 358.441 88.1293L360.437 88.0028ZM370 36C370 48.3531 363.413 59.1686 353.554 65.1238L354.589 66.8357C365.021 60.5334 372 49.0822 372 36H370ZM336 2C354.778 2 370 17.2223 370 36H372C372 16.1177 355.882 0 336 0V2ZM36 2H336V0H36V2Z" fill="#D9D9D9"/>
</svg>
