<svg width="32" height="27" viewBox="0 0 32 27" fill="none" xmlns="http://www.w3.org/2000/svg">
<path d="M25.7861 2.47686L25.3542 2.72888L25.3542 2.72888L25.7861 2.47686ZM2.362 4.02134L2.14184 4.47027L2.14184 4.47027L2.362 4.02134ZM25.3542 2.72888C27.5343 6.46461 28.8796 11.1833 29.7059 15.4245C30.5307 19.6584 30.8315 23.379 30.9404 25.0977L31.9384 25.0345C31.828 23.293 31.5236 19.5255 30.6874 15.2332C29.8526 10.9482 28.4808 6.10234 26.2179 2.22484L25.3542 2.72888ZM30.9404 25.0977C30.9743 25.6332 30.9915 26.0121 30.9977 26.0974C30.9978 26.098 31.0001 26.1378 31.0071 26.1751C31.0086 26.1829 31.0116 26.1982 31.0168 26.217C31.0193 26.226 31.0332 26.2785 31.0678 26.3373C31.0832 26.3634 31.1299 26.4394 31.2229 26.5009C31.3429 26.5803 31.5219 26.62 31.7001 26.5418C31.8362 26.482 31.903 26.3812 31.9236 26.348C31.9504 26.305 31.9646 26.2674 31.9709 26.2494C31.984 26.2121 31.9897 26.1815 31.9914 26.1715C31.994 26.1576 31.9954 26.1462 31.9962 26.1395C31.9977 26.1262 31.9985 26.1152 31.9988 26.1097C32.0006 26.08 32.0008 26.0333 32.0008 25.9952C32.0011 25.9036 32.0005 25.7365 32.0005 25.5H31.0005C31.0005 25.7434 31.0011 25.9015 31.0009 25.9929C31.0007 26.0462 31.0002 26.0555 31.0007 26.0476C31.0009 26.0449 31.0015 26.0362 31.0028 26.0245C31.0035 26.0187 31.0048 26.008 31.0072 25.9946C31.0089 25.9852 31.0144 25.9551 31.0274 25.918C31.0337 25.9002 31.0478 25.8627 31.0745 25.8198C31.0952 25.7867 31.1618 25.686 31.2979 25.6262C31.4761 25.548 31.655 25.5877 31.7749 25.667C31.8678 25.7286 31.9146 25.8045 31.9298 25.8304C31.9643 25.8891 31.9781 25.9413 31.9804 25.9497C31.9855 25.9681 31.9884 25.9828 31.9898 25.9898C31.9957 26.0213 31.9967 26.047 31.9951 26.0253C31.9884 25.9325 31.9751 25.6146 31.9384 25.0345L30.9404 25.0977ZM32.0005 25.5C32.0005 25.3147 31.9722 25.1267 31.923 24.9392L30.9557 25.1929C30.9875 25.314 31.0005 25.4157 31.0005 25.5H32.0005ZM31.923 24.9392C31.767 24.3444 31.3812 23.6832 30.8474 22.9859C30.3074 22.2807 29.5884 21.5035 28.7244 20.675C26.9958 19.0174 24.6568 17.1259 21.9321 15.1566C16.4816 11.2173 9.44986 6.94039 2.58215 3.57242L2.14184 4.47027C8.95816 7.81304 15.9412 12.0607 21.3464 15.9671C24.0495 17.9208 26.3487 19.7824 28.0322 21.3968C28.8742 22.2042 29.5548 22.9427 30.0534 23.5938C30.558 24.253 30.8497 24.7888 30.9557 25.1929L31.923 24.9392ZM2.80801 2.5H24.9418V1.5H2.80801V2.5ZM2.58215 3.57242C2.34148 3.45439 2.24313 3.2052 2.30155 2.93862C2.3596 2.67368 2.54717 2.5 2.80801 2.5V1.5C1.9843 1.5 1.46197 2.09823 1.32472 2.72457C1.18783 3.34928 1.40876 4.11076 2.14184 4.47027L2.58215 3.57242ZM26.2179 2.22484C25.9495 1.76487 25.4586 1.5 24.9418 1.5V2.5C25.1189 2.5 25.2729 2.58957 25.3542 2.72888L26.2179 2.22484Z" fill="#D9D9D9"/>
<path d="M24 2.65L25.25 1.90996M26.5 1.16992L25.25 1.90996M25.25 1.90996C25.25 1.97262 24.4167 1.66276 24 1.5" stroke="white"/>
<path d="M6 6L5.96031 5.98015M5.96031 5.98015V5.98015C4.65608 5.32804 3.41318 4.55989 2.24665 3.68499L2 3.5L5.96031 5.98015ZM5.96031 5.98015C7.5 6 9.5 6 7.5 6C5.9 6 5.80687 5.98677 5.96031 5.98015ZM6 5V5C6 4.72386 5.77614 4.5 5.5 4.5V4.5H5H2.35355C2.15829 4.5 2 4.34171 2 4.14645V4.14645C2 4.05268 1.96275 3.96275 1.89645 3.89645L1.64187 3.64187C1.55103 3.55103 1.5 3.42783 1.5 3.29936V3.29936C1.5 3.11589 1.60366 2.94817 1.76776 2.86612L2.5 2.5L3.32918 2.08541C3.43387 2.03307 3.5 1.92606 3.5 1.80902V1.80902C3.5 1.63835 3.36165 1.5 3.19098 1.5H3H2.5H2H1.75C1.61193 1.5 1.5 1.61193 1.5 1.75V1.75C1.5 1.88807 1.38807 2 1.25 2H1H5.14645C5.37282 2 5.58993 1.91007 5.75 1.75L5.79289 1.70711C5.9255 1.5745 6.10536 1.5 6.29289 1.5H6.5C6.77614 1.5 7 1.72386 7 2V2" stroke="white" stroke-width="2"/>
<path d="M7 2V2.5V2.75C7 2.88807 6.88807 3 6.75 3H6.69098C6.58551 3 6.5 2.91449 6.5 2.80902V2.80902C6.5 2.66704 6.35059 2.5747 6.22361 2.6382L5.5165 2.99175C5.50565 2.99718 5.49368 3 5.48155 3V3C5.3929 3 5.37274 2.87575 5.45684 2.84772L8.96458 1.67847C9.12057 1.62648 9.11198 1.403 8.95247 1.36312V1.36312C8.76194 1.31549 8.66345 1.58173 8.83911 1.66956L9.23566 1.86783C9.3657 1.93285 9.39383 2.10617 9.29102 2.20898L9.07206 2.42794C9.02592 2.47408 9 2.53666 9 2.60191V2.60191C9 2.78481 9.19247 2.90376 9.35606 2.82197L11 2M11 2V1.29289C11 1.13113 10.8689 1 10.7071 1V1C10.4462 1 10.3155 1.31549 10.5 1.5L11 2ZM11 2H12H14M13 2H14M14 2H15H16H21.5H24" stroke="white" stroke-width="2"/>
<path d="M6 6.5H8.75H9V6.5C10.6604 6.5 12.3145 6.29637 13.9254 5.89366L15.5 5.5" stroke="white"/>
</svg>
